<?xml version="1.0" encoding="UTF-8" standalone="no"?>
<svg width="18px" height="18px" viewBox="0 0 18 18" version="1.1" xmlns="http://www.w3.org/2000/svg" xmlns:xlink="http://www.w3.org/1999/xlink" xmlns:sketch="http://www.bohemiancoding.com/sketch/ns">
    <!-- Generator: Sketch 3.3.3 (12072) - http://www.bohemiancoding.com/sketch -->
    <title>Imported Layers</title>
    <desc>Created with Sketch.</desc>
    <defs></defs>
    <g id="searchDropDown" stroke="none" stroke-width="1" fill="none" fill-rule="evenodd" sketch:type="MSPage">
        <g id="clickInBox-or-hoverOverViewHistory" sketch:type="MSArtboardGroup" transform="translate(-362.000000, -471.000000)" fill="#B2B2B2">
            <path d="M374.460533,482.380267 C374.6408,482.540533 374.660533,482.8 374.5,482.980267 C374.339733,483.160267 374.080267,483.180267 373.9,483.019733 L370.8408,480.3 C370.7408,480.219733 370.701067,480.1 370.701067,479.980267 L370.701067,479.960267 L370.701067,475.8592 C370.701067,475.619733 370.901067,475.439467 371.1208,475.439467 C371.360533,475.439467 371.5408,475.639467 371.5408,475.8592 L371.5408,479.7792 L374.460533,482.380267 Z M380,480 C380,484.960267 375.960533,489 371,489 C366.039733,489 362,484.960267 362,480 C362,475.039467 366.039733,471 371,471 C375.960533,471 380,475.019733 380,480 L380,480 Z M371,472.2592 C366.739733,472.2592 363.260533,475.739467 363.260533,479.998933 C363.260533,484.2592 366.7408,487.7384 371,487.7384 C375.260533,487.7384 378.739733,484.2584 378.739733,479.998933 C378.739733,475.7384 375.260533,472.2592 371,472.2592 L371,472.2592 Z" id="Imported-Layers" sketch:type="MSShapeGroup"></path>
        </g>
    </g>
</svg>